<svg xmlns="http://www.w3.org/2000/svg" viewBox="0 0 64 64" fill="none" role="img" aria-label="Condomínio Threads">
  <defs>
    <linearGradient id="ring" x1="8" y1="8" x2="56" y2="56" gradientUnits="userSpaceOnUse">
      <stop stop-color="#8B6914"/>
      <stop offset="0.45" stop-color="#C4994C"/>
      <stop offset="1" stop-color="#E8C869"/>
    </linearGradient>
    <linearGradient id="tower-back" x1="18" y1="18" x2="30" y2="42" gradientUnits="userSpaceOnUse">
      <stop stop-color="#6B5D4F"/>
      <stop offset="1" stop-color="#8B6914"/>
    </linearGradient>
    <linearGradient id="tower-mid" x1="27" y1="14" x2="37" y2="42" gradientUnits="userSpaceOnUse">
      <stop stop-color="#8B6914"/>
      <stop offset="1" stop-color="#C4994C"/>
    </linearGradient>
    <linearGradient id="tower-front" x1="36" y1="20" x2="46" y2="42" gradientUnits="userSpaceOnUse">
      <stop stop-color="#A89880"/>
      <stop offset="1" stop-color="#C4994C"/>
    </linearGradient>
    <linearGradient id="house" x1="24" y1="28" x2="40" y2="44" gradientUnits="userSpaceOnUse">
      <stop stop-color="#F5F0E8"/>
      <stop offset="1" stop-color="#E8C869"/>
    </linearGradient>
  </defs>

  <circle cx="32" cy="30" r="24" stroke="url(#ring)" stroke-width="2.2" opacity="0.95"/>
  <circle cx="14" cy="16" r="2.2" fill="#C4994C"/>
  <circle cx="50" cy="14" r="2.2" fill="#E8C869"/>
  <circle cx="52" cy="44" r="2.2" fill="#8B6914"/>

  <rect x="18" y="24" width="8" height="18" rx="1.2" fill="url(#tower-back)" opacity="0.85"/>
  <rect x="27" y="18" width="9" height="24" rx="1.2" fill="url(#tower-mid)"/>
  <rect x="37" y="22" width="8" height="20" rx="1.2" fill="url(#tower-front)" opacity="0.92"/>

  <rect x="20" y="28" width="2" height="2.2" rx="0.4" fill="#F5F0E8" opacity="0.55"/>
  <rect x="23" y="28" width="2" height="2.2" rx="0.4" fill="#F5F0E8" opacity="0.55"/>
  <rect x="29" y="24" width="2" height="2.2" rx="0.4" fill="#F5F0E8" opacity="0.65"/>
  <rect x="32" y="24" width="2" height="2.2" rx="0.4" fill="#F5F0E8" opacity="0.65"/>
  <rect x="39" y="27" width="2" height="2.2" rx="0.4" fill="#F5F0E8" opacity="0.55"/>

  <path d="M24 38 L32 31 L40 38 V44 H24 Z" fill="url(#house)" stroke="#C4994C" stroke-width="1.2" stroke-linejoin="round"/>
  <rect x="28" y="36" width="2.2" height="2.2" rx="0.35" fill="#C4994C"/>
  <rect x="33.8" y="36" width="2.2" height="2.2" rx="0.35" fill="#C4994C"/>
  <rect x="28" y="39.8" width="2.2" height="2.2" rx="0.35" fill="#8B6914"/>
  <rect x="33.8" y="39.8" width="2.2" height="2.2" rx="0.35" fill="#8B6914"/>

  <path d="M22 48 C26 52 30 54 32 54 C34 54 38 52 42 48" stroke="url(#ring)" stroke-width="1.6" stroke-linecap="round" opacity="0.8"/>
  <circle cx="28" cy="50" r="1.3" fill="#C4994C"/>
  <circle cx="32" cy="51" r="1.3" fill="#E8C869"/>
  <circle cx="36" cy="50" r="1.3" fill="#C4994C"/>
</svg>
